<?xml version="1.0" encoding="utf-8"?>
<!-- Generator: Adobe Illustrator 27.5.0, SVG Export Plug-In . SVG Version: 6.00 Build 0)  -->
<svg version="1.1" xmlns="http://www.w3.org/2000/svg" xmlns:xlink="http://www.w3.org/1999/xlink" x="0px" y="0px"
	 viewBox="0 0 750 500" style="enable-background:new 0 0 750 500;" xml:space="preserve">
<g id="BACKGROUND">
	<rect style="fill:#FFFFFF;" width="749.999" height="500"/>
</g>
<g id="OBJECTS">
	<g>
		<defs>
			<rect id="SVGID_1_" width="749.999" height="500"/>
		</defs>
		<clipPath id="SVGID_00000035496614170390184890000004310777144737809074_">
			<use xlink:href="#SVGID_1_"  style="overflow:visible;"/>
		</clipPath>
		<g style="clip-path:url(#SVGID_00000035496614170390184890000004310777144737809074_);">
			<path style="fill:#D9E8FF;" d="M515.527-91.867C415.248-68.793,384.217,15.691,374.382,56.5
				c-7.617,31.607-25.668,61.168-53.152,80.777c-32.108,22.908-73.983,27.921-110.743,39.805
				c-32.694,10.569-68.821,28.998-80.826,63.553c-8.382,24.127-9.795,74.302-48.17,97.123c-12.92,7.683-35.988,14.936-40.613,31.6
				c-4.866,17.532,2.313,33.143,25.969,40.497c22.12,6.876,55.381-3.172,99.434,0c37.132,2.673,40.614,38.747,67.22,57.529
				c32.561,22.985,77.999,6.092,114.705,16.596c26.597,7.611,50.218,23.101,77.244,28.97c39.182,8.51,80.125,5.778,119.311-1.227
				c46.957-8.394,200.145,62.7,239.809-15.644c27.647-29.148,30.227-487.354-69.64-581.749
				c-28.852-27.271-128.008-50.745-165.997-39.213"/>
		</g>
	</g>
	<path style="opacity:0.55;fill:#D9E8FF;" d="M540.052,411.88c0,4.251-68.605,7.696-153.235,7.696
		c-84.629,0-153.235-3.446-153.235-7.696c0-4.25,68.605-7.696,153.235-7.696C471.447,404.184,540.052,407.629,540.052,411.88z"/>
	<ellipse style="opacity:0.55;fill:#D9E8FF;" cx="188.825" cy="366.587" rx="83.568" ry="7.696"/>
	<g>
		<path style="fill:#ACC9F9;" d="M164.891,362.713c0,0-48.758,0-60.578,0c-11.82,0-9.902-14.017,22.982-7.781
			c-8.068-3.688-8.115-8.626-7.431-9.943c0.629-1.21,2.933-1.988,4.292-1.872c4.183,0.359,7.358,2.923,11.023,4.971
			c-6.63-4.312-10.751-12.226-10.483-20.131c0.074-2.173,0.544-4.503,2.141-5.978c1.796-1.658,4.73-2.762,7.127-2.286
			c4.438,0.881,12.595,8.29,15.847,11.436c-16.569-15.241-22.879-39.257-12.271-44.735c17.858-9.223,31.349,43.025,31.349,43.025
			s-8.883-39.261,6.016-39.491c14.899-0.23,2.785,45.61,2.785,45.61"/>
	</g>
	<path style="fill:#FFFFFF;" d="M159.54,334.417c1.95,0,3.818,0.334,5.569,0.924c0.422-14.555,12.344-26.226,27.001-26.226
		c14.923,0,27.021,12.098,27.021,27.021c0,0.683-0.034,1.358-0.084,2.028c2.607-4.399,7.389-7.357,12.873-7.357
		c8.267,0,14.969,6.702,14.969,14.969c0,1.172-0.149,2.308-0.403,3.402c1.544-0.86,3.319-1.354,5.211-1.354
		c5.927,0,10.732,4.805,10.732,10.732c0,5.927-4.805,10.732-10.732,10.732c-5.927,0-84.609,0-92.157,0
		c-9.63,0-17.436-7.807-17.436-17.436C142.104,342.223,149.911,334.417,159.54,334.417z"/>
	<g>
		<g>
			<path style="fill:#95BAEF;" d="M557.194,374.183c5.24,0,9.488,4.248,9.488,9.488V157.06v0c0-5.24-4.248-9.488-9.488-9.488H278.17
				v226.612H557.194z"/>
			<path style="fill:#ACC9F9;" d="M557.178,164.783c5.232,0,9.473-4.248,9.473-9.488v226.612v0c0,5.24-4.241,9.488-9.473,9.488
				H253.006V164.783H557.178z"/>
			<path style="fill:#ACC9F9;" d="M253.844,390.556c-5.24,0-9.488,4.248-9.488,9.488V173.433v0c0-5.24,4.248-9.488,9.488-9.488
				h304.497v226.612H253.844z"/>
			<path style="fill:#FFFFFF;" d="M253.844,183.818c-5.24,0-9.488-4.248-9.488-9.488v225.892l0,0c0,5.24,4.248,9.488,9.488,9.488
				h295.561V183.818H253.844z"/>
			<path style="fill:#92A7F4;" d="M254.292,166.177h304.049v-2.232H254.292c-5.488,0-9.937,4.449-9.937,9.937
				c0,5.488,4.449,9.937,9.937,9.937h295.113v-2.232H254.292c-4.248,0-7.704-3.456-7.704-7.704
				C246.588,169.633,250.044,166.177,254.292,166.177z"/>
			<path style="fill:#92A7F4;" d="M556.745,148.568H278.324v-2.232h278.421c5.488,0,9.937,4.449,9.937,9.937
				c0,5.488-4.449,9.937-9.937,9.937H261.632v-2.232h295.113c4.248,0,7.704-3.456,7.704-7.704
				C564.449,152.025,560.993,148.568,556.745,148.568z"/>
			<g>
				<g>
					<rect x="263.74" y="251.297" style="fill:#E2F0FB;" width="149.691" height="4.465"/>
				</g>
				<g>
					<rect x="263.74" y="259.706" style="fill:#E2F0FB;" width="149.691" height="4.465"/>
				</g>
				<g>
					<rect x="263.74" y="268.115" style="fill:#E2F0FB;" width="149.691" height="4.465"/>
				</g>
				<g>
					<rect x="263.74" y="276.524" style="fill:#E2F0FB;" width="149.691" height="4.465"/>
				</g>
				<g>
					<rect x="263.74" y="284.933" style="fill:#E2F0FB;" width="149.691" height="4.465"/>
				</g>
				<g>
					<rect x="263.74" y="293.341" style="fill:#E2F0FB;" width="149.691" height="4.465"/>
				</g>
				<g>
					<rect x="263.74" y="301.75" style="fill:#E2F0FB;" width="149.691" height="4.465"/>
				</g>
				<g>
					<rect x="263.74" y="310.16" style="fill:#E2F0FB;" width="149.691" height="4.465"/>
				</g>
			</g>
			<g>
				<g>
					<rect x="263.74" y="328.072" style="fill:#E2F0FB;" width="149.691" height="4.465"/>
				</g>
				<g>
					<rect x="263.74" y="336.48" style="fill:#E2F0FB;" width="149.691" height="4.465"/>
				</g>
				<g>
					<rect x="263.74" y="344.89" style="fill:#E2F0FB;" width="149.691" height="45.049"/>
				</g>
				<g>
					<rect x="263.74" y="395.343" style="fill:#E2F0FB;" width="149.691" height="4.465"/>
				</g>
			</g>
			<g>
				<g>
					<rect x="427.802" y="328.072" style="fill:#E2F0FB;" width="99.36" height="4.465"/>
				</g>
				<g>
					<rect x="427.802" y="336.48" style="fill:#E2F0FB;" width="99.36" height="4.465"/>
				</g>
				<g>
					<rect x="427.802" y="311.591" style="fill:#E2F0FB;" width="99.36" height="4.465"/>
				</g>
				<g>
					<rect x="427.802" y="303.294" style="fill:#E2F0FB;" width="99.36" height="4.465"/>
				</g>
				<g>
					<rect x="427.802" y="344.89" style="fill:#E2F0FB;" width="99.36" height="4.465"/>
				</g>
				<g>
					<rect x="427.802" y="353.298" style="fill:#E2F0FB;" width="99.36" height="4.465"/>
				</g>
				<g>
					<rect x="427.802" y="361.707" style="fill:#E2F0FB;" width="99.36" height="4.465"/>
				</g>
				<g>
					<rect x="427.802" y="370.116" style="fill:#E2F0FB;" width="99.36" height="4.465"/>
				</g>
				<g>
					<rect x="427.802" y="378.525" style="fill:#E2F0FB;" width="99.36" height="4.465"/>
				</g>
				<g>
					<rect x="427.802" y="386.935" style="fill:#E2F0FB;" width="99.36" height="4.465"/>
				</g>
				<g>
					<rect x="427.802" y="395.343" style="fill:#E2F0FB;" width="99.36" height="4.465"/>
				</g>
			</g>
			
				<text transform="matrix(1 0 0 1 261.4951 235.3164)" style="fill:#92A7F4; font-family:'Montserrat-ExtraBold'; font-size:51.8993px;">NEWS</text>
			<g>
				<rect x="427.802" y="251.297" style="fill:#E2F0FB;" width="99.36" height="48.254"/>
			</g>
			<g>
				<rect x="446.314" y="194.877" style="fill:#DEEBFF;" width="80.849" height="44.743"/>
			</g>
			<g>
				
					<line style="fill:none;stroke:#A0D0D8;stroke-width:1.1513;stroke-miterlimit:10;" x1="263.74" y1="244.394" x2="527.163" y2="244.394"/>
			</g>
			<g>
				<g>
					<path style="fill:#FFFFFF;" d="M471.374,217.632c0-9.409,7.656-17.065,17.066-17.065c9.409,0,17.064,7.655,17.064,17.065
						c0,9.41-7.654,17.065-17.064,17.065C479.03,234.697,471.374,227.042,471.374,217.632z M473.109,217.632
						c0,8.453,6.877,15.33,15.331,15.33c8.452,0,15.328-6.877,15.328-15.33s-6.877-15.33-15.328-15.33
						C479.986,202.303,473.109,209.18,473.109,217.632z"/>
				</g>
				<g>
					<path style="fill:#FFFFFF;" d="M480.804,217.632c0-9.569,3.355-17.065,7.636-17.065c4.281,0,7.636,7.496,7.636,17.065
						c0,9.569-3.355,17.065-7.636,17.065C484.158,234.697,480.804,227.201,480.804,217.632z M482.539,217.632
						c0,9.035,3.111,15.33,5.901,15.33c2.79,0,5.901-6.295,5.901-15.33c0-9.034-3.111-15.33-5.901-15.33
						C485.649,202.303,482.539,208.598,482.539,217.632z"/>
				</g>
				<g>
					<rect x="472.241" y="216.765" style="fill:#FFFFFF;" width="32.395" height="1.735"/>
				</g>
				<g>
					<g>
						<path style="fill:#FFFFFF;" d="M488.44,211.288c9.396,0,12.701-3.297,12.839-3.437l-1.247-1.209l0.624,0.604l-0.617-0.61
							c-0.029,0.029-3.034,2.917-11.599,2.917c-8.565,0-11.572-2.887-11.601-2.917l-1.24,1.214
							C475.736,207.99,479.044,211.288,488.44,211.288z"/>
					</g>
					<g>
						<path style="fill:#FFFFFF;" d="M500.038,228.629l1.24-1.214c-0.138-0.14-3.443-3.438-12.839-3.438s-12.703,3.297-12.841,3.438
							l1.247,1.209c0.022-0.024,3.03-2.911,11.594-2.911C497.004,225.712,500.009,228.6,500.038,228.629z"/>
					</g>
				</g>
			</g>
			<g>
				<polyline style="fill:none;stroke:#9999EF;stroke-width:0.5176;stroke-miterlimit:10;" points="514.75,295 433.142,295 
					433.142,255.405 				"/>
				
					<linearGradient id="SVGID_00000089566980147128069020000017069884082983299482_" gradientUnits="userSpaceOnUse" x1="433.1425" y1="277.6106" x2="501.75" y2="277.6106">
					<stop  offset="0" style="stop-color:#FFFFFF"/>
					<stop  offset="1" style="stop-color:#FFFFFF;stop-opacity:0"/>
				</linearGradient>
				<polygon style="opacity:0.2412;fill:url(#SVGID_00000089566980147128069020000017069884082983299482_);" points="
					433.142,283.71 450.731,268.202 455.256,274.34 461.934,260.259 466.64,271.984 472.353,264.325 480.307,278.486 
					495.096,264.23 501.75,276.078 501.75,294.962 433.142,294.962 				"/>
				
					<linearGradient id="SVGID_00000042718445732233255970000000989392122708459392_" gradientUnits="userSpaceOnUse" x1="462.0971" y1="267.4213" x2="462.0971" y2="294.6591">
					<stop  offset="0" style="stop-color:#FFFFFF"/>
					<stop  offset="1" style="stop-color:#FFFFFF;stop-opacity:0"/>
				</linearGradient>
				<polygon style="opacity:0.2412;fill:url(#SVGID_00000042718445732233255970000000989392122708459392_);" points="
					433.142,278.803 449.596,286.05 461.828,261.18 468.508,278.803 479.478,267.327 491.052,279.848 491.052,294.962 
					433.142,294.962 				"/>
				
					<line style="fill:none;stroke:#9999EF;stroke-width:0.7178;stroke-miterlimit:10;" x1="511.311" y1="254.75" x2="522.981" y2="254.75"/>
				
					<line style="fill:none;stroke:#9999EF;stroke-width:0.7178;stroke-miterlimit:10;" x1="511.311" y1="256.673" x2="522.981" y2="256.673"/>
				
					<line style="fill:none;stroke:#9999EF;stroke-width:0.7178;stroke-miterlimit:10;" x1="511.311" y1="258.596" x2="522.981" y2="258.596"/>
				
					<line style="fill:none;stroke:#9999EF;stroke-width:0.7178;stroke-miterlimit:10;" x1="503.75" y1="254.75" x2="509.038" y2="254.75"/>
				
					<line style="fill:none;stroke:#9999EF;stroke-width:0.7178;stroke-miterlimit:10;" x1="503.75" y1="256.673" x2="509.038" y2="256.673"/>
				
					<line style="fill:none;stroke:#9999EF;stroke-width:0.7178;stroke-miterlimit:10;" x1="503.75" y1="258.596" x2="509.038" y2="258.596"/>
				<path style="fill:none;stroke:#FFFFFF;stroke-width:0.5605;stroke-miterlimit:10;" d="M436.611,272.207
					c2.703,1.146,4.384,3.503,5.656,5.837c1.272,2.335,2.324,4.825,4.343,6.739c2.019,1.914,5.369,3.114,8.109,2.035
					c2.418-0.952,3.578-3.28,4.449-5.427c2.54-6.263,4.432-12.716,5.648-19.262c0.18-0.971,0.354-1.967,0.901-2.833
					s1.554-1.591,2.707-1.606c1.353-0.018,2.452,0.897,3.309,1.79c5.736,5.973,8.229,13.727,13.099,20.236
					c0.955,1.276,2.213,2.614,3.978,2.774c1.41,0.128,2.735-0.546,3.89-1.246c3.437-2.084,6.466-4.657,8.925-7.579"/>
				<g>
					<path style="fill:#9999EF;stroke:#9999EF;stroke-miterlimit:10;" d="M437.061,272.007c0,0.249-0.202,0.451-0.451,0.451
						c-0.249,0-0.451-0.202-0.451-0.451s0.202-0.451,0.451-0.451C436.86,271.557,437.061,271.758,437.061,272.007z"/>
					<path style="fill:#9999EF;stroke:#9999EF;stroke-miterlimit:10;" d="M453.083,287.167c0,0.249-0.202,0.45-0.451,0.45
						c-0.249,0-0.45-0.202-0.45-0.45c0-0.249,0.202-0.451,0.45-0.451C452.882,286.716,453.083,286.918,453.083,287.167z"/>
					<path style="fill:#9999EF;stroke:#9999EF;stroke-miterlimit:10;" d="M501.667,274c0,0.249-0.202,0.451-0.45,0.451
						c-0.249,0-0.451-0.202-0.451-0.451s0.202-0.451,0.451-0.451C501.465,273.549,501.667,273.751,501.667,274z"/>
					<path style="fill:#9999EF;stroke:#9999EF;stroke-miterlimit:10;" d="M489.284,282.583c0,0.249-0.202,0.451-0.451,0.451
						c-0.249,0-0.451-0.202-0.451-0.451c0-0.249,0.202-0.45,0.451-0.45C489.082,282.133,489.284,282.335,489.284,282.583z"/>
					<path style="fill:#9999EF;stroke:#9999EF;stroke-miterlimit:10;" d="M468.401,257.833c0,0.249-0.202,0.45-0.45,0.45
						c-0.249,0-0.451-0.202-0.451-0.45c0-0.249,0.202-0.451,0.451-0.451C468.199,257.383,468.401,257.585,468.401,257.833z"/>
				</g>
			</g>
		</g>
		<g>
			<g>
				<g>
					<path style="fill:#9999EF;" d="M418.664,127.474c-1.673,4.195-6.43,6.241-10.625,4.568c-4.195-1.673-6.24-6.43-4.568-10.625
						c1.672-4.195,6.429-6.241,10.625-4.568C418.292,118.522,420.337,123.279,418.664,127.474z"/>
					
						<polyline style="fill:none;stroke:#FFFFFF;stroke-width:1.7376;stroke-linecap:round;stroke-linejoin:round;stroke-miterlimit:10;" points="
						407.583,123.469 409.419,127.562 415.564,123.762 					"/>
				</g>
				<g>
					<path style="fill:#9999EF;" d="M177.575,236.037c1.406,4.292-0.933,8.911-5.225,10.318c-4.292,1.406-8.911-0.933-10.318-5.225
						c-1.407-4.292,0.933-8.911,5.224-10.318C171.549,229.406,176.169,231.745,177.575,236.037z"/>
					
						<polyline style="fill:none;stroke:#FFFFFF;stroke-width:1.7376;stroke-linecap:round;stroke-linejoin:round;stroke-miterlimit:10;" points="
						166.503,240.068 170.536,242.032 172.816,235.176 					"/>
				</g>
				<path style="fill:#9999EF;" d="M629.759,289.16c0,1.661-1.346,3.007-3.007,3.007c-1.661,0-3.007-1.346-3.007-3.007
					c0-1.661,1.346-3.007,3.007-3.007C628.413,286.153,629.759,287.5,629.759,289.16z"/>
				<path style="opacity:0.3;fill:#9999EF;" d="M382.34,95c0,1.661-1.346,3.007-3.007,3.007c-1.661,0-3.007-1.347-3.007-3.007
					c0-1.661,1.346-3.007,3.007-3.007C380.994,91.993,382.34,93.339,382.34,95z"/>
				<path style="fill:#9999EF;" d="M84.799,383c0,2.65-2.149,4.799-4.799,4.799c-2.651,0-4.8-2.149-4.8-4.799
					c0-2.651,2.149-4.799,4.8-4.799C82.651,378.201,84.799,380.349,84.799,383z"/>
				<path style="opacity:0.3;fill:#9999EF;" d="M641.382,235.667c0,4.077-3.305,7.382-7.382,7.382c-4.077,0-7.382-3.305-7.382-7.382
					c0-4.077,3.305-7.382,7.382-7.382C638.077,228.285,641.382,231.59,641.382,235.667z"/>
				<path style="opacity:0.3;fill:#9999EF;" d="M308.049,99c0,4.077-3.305,7.382-7.382,7.382c-4.077,0-7.382-3.305-7.382-7.382
					c0-4.077,3.305-7.382,7.382-7.382C304.744,91.618,308.049,94.923,308.049,99z"/>
				<path style="opacity:0.3;fill:#9999EF;" d="M198.52,440.879c0,4.077-3.305,7.382-7.382,7.382c-4.077,0-7.382-3.305-7.382-7.382
					c0-4.077,3.305-7.382,7.382-7.382C195.215,433.498,198.52,436.802,198.52,440.879z"/>
				<path style="opacity:0.3;fill:#9999EF;" d="M469.672,97.897c0,2.651-2.149,4.799-4.799,4.799c-2.651,0-4.8-2.149-4.8-4.799
					c0-2.651,2.149-4.799,4.8-4.799C467.523,93.097,469.672,95.246,469.672,97.897z"/>
				<path style="opacity:0.2;fill:#9999EF;" d="M596.133,187.667c0,2.651-2.149,4.799-4.799,4.799c-2.651,0-4.8-2.149-4.8-4.799
					c0-2.651,2.149-4.799,4.8-4.799C593.984,182.867,596.133,185.016,596.133,187.667z"/>
				<g>
					<g>
						<g>
							<path style="fill:#9999EF;" d="M90.946,282.269c-0.529,0-0.959-0.43-0.959-0.959v-6.766c0-0.529,0.43-0.959,0.959-0.959
								c0.529,0,0.959,0.43,0.959,0.959v6.766C91.906,281.839,91.476,282.269,90.946,282.269z"/>
						</g>
						<g>
							<path style="fill:#9999EF;" d="M94.331,278.886h-6.767c-0.529,0-0.959-0.43-0.959-0.959c0-0.529,0.43-0.959,0.959-0.959
								h6.767c0.529,0,0.959,0.43,0.959,0.959C95.29,278.456,94.86,278.886,94.331,278.886z"/>
						</g>
					</g>
				</g>
				<g style="opacity:0.43;">
					<g>
						<path style="fill:#9999EF;" d="M208.292,67.391c-0.529,0-0.959-0.43-0.959-0.959v-6.766c0-0.529,0.43-0.959,0.959-0.959
							c0.529,0,0.959,0.43,0.959,0.959v6.766C209.251,66.962,208.821,67.391,208.292,67.391z"/>
					</g>
					<g>
						<path style="fill:#9999EF;" d="M211.676,64.008h-6.767c-0.529,0-0.959-0.43-0.959-0.959c0-0.529,0.43-0.959,0.959-0.959h6.767
							c0.529,0,0.959,0.43,0.959,0.959C212.635,63.578,212.206,64.008,211.676,64.008z"/>
					</g>
				</g>
				<g style="opacity:0.3;">
					<g>
						<g>
							<path style="fill:#9999EF;" d="M121.047,214.4c-0.529,0-0.959-0.43-0.959-0.959v-6.766c0-0.529,0.43-0.959,0.959-0.959
								c0.529,0,0.959,0.43,0.959,0.959v6.766C122.006,213.97,121.576,214.4,121.047,214.4z"/>
						</g>
						<g>
							<path style="fill:#9999EF;" d="M124.431,211.017h-6.767c-0.529,0-0.959-0.43-0.959-0.959s0.43-0.959,0.959-0.959h6.767
								c0.529,0,0.959,0.43,0.959,0.959S124.961,211.017,124.431,211.017z"/>
						</g>
					</g>
				</g>
				<g>
					<g>
						<g>
							<path style="fill:#9999EF;" d="M579.702,267.428c-0.529,0-0.959-0.43-0.959-0.959v-6.766c0-0.529,0.43-0.959,0.959-0.959
								c0.529,0,0.959,0.43,0.959,0.959v6.766C580.661,266.998,580.232,267.428,579.702,267.428z"/>
						</g>
						<g>
							<path style="fill:#9999EF;" d="M583.086,264.045h-6.766c-0.529,0-0.959-0.43-0.959-0.959c0-0.529,0.43-0.959,0.959-0.959
								h6.766c0.529,0,0.959,0.43,0.959,0.959C584.045,263.615,583.616,264.045,583.086,264.045z"/>
						</g>
					</g>
				</g>
				<g>
					<g>
						<g>
							<path style="fill:#9999EF;" d="M625.793,141.845c-0.529,0-0.959-0.43-0.959-0.959v-6.766c0-0.529,0.43-0.959,0.959-0.959
								c0.529,0,0.959,0.43,0.959,0.959v6.766C626.752,141.415,626.322,141.845,625.793,141.845z"/>
						</g>
						<g>
							<path style="fill:#9999EF;" d="M629.177,138.462h-6.766c-0.529,0-0.959-0.43-0.959-0.959c0-0.529,0.43-0.959,0.959-0.959
								h6.766c0.529,0,0.959,0.43,0.959,0.959C630.136,138.032,629.706,138.462,629.177,138.462z"/>
						</g>
					</g>
				</g>
				<g>
					<path style="fill:#FFFFFF;" d="M600.04,109.71c-1.855-0.956-3.923-1.401-5.681-2.556c-4.979-3.271-5.856-10.238-7.897-15.735
						c-2.291-6.17-8.477-9.593-14.924-8.938c-4.569,0.465-8.112,3.183-11.133,6.451c-1.954,2.114-2.536,9.159-8.552,9.269
						c-1.175,0.021-2.095-1-3.075-1.709c-2.891-2.092-7.382-0.553-8.67,2.97c-0.635,1.737-0.584,3.784-1.58,5.304
						c-2.551,3.894-8.863,0.809-12.212,3.895c-1.208,1.113-1.784,2.842-2.831,4.135c-1.522,1.879-3.858,2.647-6.076,3.287
						c-6.129,1.77-14.078,2.044-14.078,4.049c0,2.841,31.539,1.137,50.067,1.137c10.194,0,20.388,0,30.582,0
						c4.752,0,19.98,2.253,19.743-6.596C603.663,112.429,601.895,110.666,600.04,109.71z"/>
				</g>
				<g>
					<path style="fill:#FFFFFF;" d="M425.731,67.332c-0.061-0.059-0.121-0.119-0.181-0.182c-1.792-1.888-2.495-3.948-5.459-4.081
						c-3.51-0.158-9.228,0.75-10.68-3.508c-0.873-2.559-0.004-5.54-1.872-7.781c-1.304-1.565-3.462-2.227-5.497-2.134
						c-3.489,0.16-6.329,2.587-9.739,3.055c-4.009,0.55-5.907-3.264-9.135-4.858c-5.696-2.814-10.587-0.324-13.507,1.951
						c-3.234,2.519-5.312,6.367-5.915,10.399c-0.731,4.897,3.778,9.653,8.579,11.795c2.374,1.059,5.027,1.31,7.626,1.328
						c3.057,0.021,6.121-0.081,9.159-0.148c5.729-0.128,52.469,0.273,52.469-1.182c0-0.925-6.797-1.802-7.761-2.077
						C431.067,69.12,427.898,69.418,425.731,67.332z"/>
				</g>
				<g>
					<path style="fill:#D9E8FF;" d="M144.871,142.984c-0.061-0.059-0.121-0.119-0.181-0.182c-1.792-1.888-2.495-3.948-5.459-4.081
						c-3.51-0.158-9.228,0.749-10.68-3.508c-0.873-2.559-0.004-5.54-1.872-7.781c-1.304-1.565-3.462-2.227-5.497-2.134
						c-3.489,0.16-6.329,2.587-9.739,3.055c-4.008,0.55-5.907-3.264-9.135-4.859c-5.696-2.814-10.587-0.324-13.507,1.951
						c-3.234,2.519-5.312,6.367-5.915,10.399c-0.731,4.897,3.778,9.653,8.579,11.795c2.374,1.059,5.027,1.31,7.626,1.328
						c3.057,0.021,6.121-0.081,9.159-0.148c5.729-0.128,52.469,0.273,52.469-1.182c0-0.925-6.797-1.802-7.761-2.077
						C150.206,144.773,147.038,145.07,144.871,142.984z"/>
				</g>
			</g>
			<g>
				<g style="opacity:0.7;">
					<g>
						<path style="fill:#B8E2FF;" d="M207.841,155.465l-1.938,1.204l-0.046,0.029c-0.407,0.253-0.943,0.128-1.196-0.279
							c-0.252-0.406-0.129-0.938,0.274-1.193l2.025-1.277c0.409-0.258,0.951-0.135,1.209,0.274c0.258,0.41,0.136,0.951-0.274,1.209
							l-0.005,0.003L207.841,155.465z"/>
						<path style="fill:#B8E2FF;" d="M203.089,158.721c-1.215,0.964-2.383,1.991-3.505,3.068c-0.335,0.322-0.867,0.311-1.189-0.023
							c-0.321-0.333-0.311-0.863,0.02-1.186c1.15-1.12,2.351-2.19,3.605-3.199c0.369-0.297,0.908-0.238,1.205,0.131
							c0.297,0.369,0.238,0.908-0.131,1.205L203.089,158.721z"/>
						<path style="fill:#B8E2FF;" d="M197.142,164.296c-1.05,1.149-2.052,2.344-3.002,3.577c-0.274,0.356-0.785,0.423-1.141,0.148
							c-0.355-0.273-0.422-0.781-0.152-1.137c0.969-1.277,1.992-2.512,3.066-3.704c0.307-0.34,0.831-0.367,1.171-0.061
							c0.34,0.307,0.367,0.831,0.061,1.171L197.142,164.296z"/>
						<path style="fill:#B8E2FF;" d="M192.093,170.715c-0.868,1.292-1.68,2.621-2.426,3.986c-0.208,0.381-0.686,0.521-1.066,0.313
							c-0.379-0.207-0.519-0.682-0.315-1.062c0.761-1.414,1.589-2.79,2.474-4.126c0.244-0.369,0.742-0.47,1.111-0.226
							c0.369,0.245,0.47,0.742,0.226,1.111L192.093,170.715z"/>
						<path style="fill:#B8E2FF;" d="M188.106,177.828c-0.639,1.415-1.202,2.863-1.669,4.338c-0.126,0.399-0.552,0.62-0.951,0.494
							c-0.397-0.126-0.618-0.549-0.495-0.947c0.477-1.541,1.051-3.047,1.703-4.517c0.173-0.391,0.63-0.567,1.021-0.394
							c0.391,0.173,0.567,0.63,0.394,1.021L188.106,177.828z"/>
						<path style="fill:#B8E2FF;" d="M185.556,185.528c-0.31,1.511-0.506,3.042-0.558,4.576c-0.014,0.403-0.351,0.719-0.754,0.705
							c-0.401-0.013-0.716-0.349-0.705-0.75c0.045-1.625,0.241-3.24,0.555-4.827c0.08-0.404,0.473-0.667,0.877-0.587
							c0.404,0.08,0.667,0.473,0.587,0.877L185.556,185.528z"/>
						<path style="fill:#B8E2FF;" d="M185.136,193.543c0.18,1.517,0.527,3.012,1.051,4.441c0.134,0.364-0.053,0.768-0.417,0.902
							c-0.363,0.133-0.765-0.052-0.9-0.413c-0.575-1.534-0.957-3.136-1.16-4.755c-0.05-0.394,0.229-0.753,0.623-0.803
							s0.753,0.229,0.803,0.623L185.136,193.543z"/>
						<path style="fill:#B8E2FF;" d="M187.658,201.073c0.779,1.31,1.721,2.523,2.787,3.623c0.259,0.268,0.252,0.695-0.015,0.954
							c-0.266,0.258-0.691,0.252-0.951-0.012c-1.141-1.162-2.159-2.454-3.005-3.855c-0.197-0.326-0.093-0.751,0.234-0.948
							c0.326-0.197,0.751-0.093,0.948,0.234L187.658,201.073z"/>
						<path style="fill:#B8E2FF;" d="M193.03,206.984c1.225,0.933,2.538,1.758,3.905,2.486c0.315,0.168,0.435,0.56,0.267,0.875
							c-0.167,0.314-0.557,0.434-0.871,0.269c-1.427-0.747-2.805-1.6-4.101-2.573c-0.293-0.22-0.352-0.635-0.132-0.928
							c0.22-0.293,0.635-0.352,0.928-0.132L193.03,206.984z"/>
						<path style="fill:#B8E2FF;" d="M200.094,210.935c1.439,0.573,2.921,1.04,4.429,1.396c0.332,0.078,0.537,0.41,0.459,0.742
							c-0.078,0.33-0.408,0.535-0.738,0.46c-1.57-0.358-3.114-0.833-4.615-1.418c-0.326-0.127-0.488-0.495-0.36-0.821
							c0.127-0.326,0.495-0.488,0.821-0.361L200.094,210.935z"/>
						<path style="fill:#B8E2FF;" d="M207.955,212.942c1.539,0.187,3.092,0.259,4.642,0.214c0.324-0.009,0.594,0.246,0.604,0.57
							c0.009,0.323-0.244,0.592-0.565,0.604c-1.609,0.058-3.222-0.005-4.821-0.187c-0.331-0.038-0.57-0.337-0.532-0.669
							c0.038-0.331,0.337-0.57,0.669-0.532L207.955,212.942z"/>
						<path style="fill:#B8E2FF;" d="M216.071,212.857c1.535-0.221,3.053-0.559,4.537-1.014c0.294-0.09,0.606,0.075,0.696,0.37
							c0.09,0.293-0.074,0.603-0.366,0.695c-1.535,0.482-3.108,0.845-4.699,1.086c-0.313,0.048-0.606-0.168-0.654-0.482
							c-0.048-0.313,0.168-0.606,0.482-0.654L216.071,212.857z"/>
						<path style="fill:#B8E2FF;" d="M223.874,210.626c1.414-0.629,2.776-1.377,4.025-2.273c0.237-0.171,0.568-0.117,0.738,0.12
							c0.17,0.236,0.117,0.565-0.118,0.737c-1.314,0.956-2.732,1.745-4.199,2.41c-0.274,0.124-0.597,0.003-0.721-0.271
							c-0.124-0.274-0.003-0.597,0.271-0.721L223.874,210.626z"/>
						<path style="fill:#B8E2FF;" d="M230.458,206.068c1.005-1.136,1.791-2.458,2.212-3.898c0.077-0.266,0.356-0.418,0.621-0.34
							c0.264,0.077,0.416,0.355,0.341,0.619c-0.456,1.602-1.318,3.065-2.396,4.3c-0.187,0.216-0.513,0.239-0.729,0.053
							c-0.216-0.187-0.24-0.513-0.053-0.729L230.458,206.068z"/>
						<path style="fill:#B8E2FF;" d="M233.019,198.826c-0.105-1.503-0.534-3.009-1.152-4.392l-0.005-0.01
							c-0.106-0.238,0.001-0.518,0.239-0.624c0.236-0.105,0.513-0.001,0.622,0.233c0.35,0.755,0.618,1.51,0.84,2.301
							c0.218,0.787,0.368,1.599,0.431,2.422c0.021,0.269-0.18,0.504-0.45,0.525c-0.269,0.021-0.504-0.18-0.525-0.45L233.019,198.826
							z"/>
						<path style="fill:#B8E2FF;" d="M229.907,191.71c-1.096-1.028-2.464-1.752-3.921-2.192c-0.235-0.071-0.368-0.319-0.297-0.554
							c0.071-0.234,0.318-0.367,0.552-0.298c1.566,0.46,3.072,1.238,4.294,2.368c0.187,0.172,0.199,0.464,0.027,0.651
							s-0.464,0.199-0.651,0.027L229.907,191.71z"/>
						<path style="fill:#B8E2FF;" d="M222.592,188.943c-1.54-0.084-3.095,0.033-4.627,0.289c-0.227,0.038-0.441-0.114-0.48-0.341
							c-0.038-0.226,0.114-0.439,0.339-0.479c1.581-0.276,3.195-0.41,4.813-0.332c0.238,0.011,0.423,0.214,0.411,0.452
							c-0.011,0.238-0.214,0.423-0.452,0.411L222.592,188.943z"/>
						<path style="fill:#B8E2FF;" d="M214.558,190.036c-1.493,0.45-2.953,1.015-4.371,1.672c-0.194,0.09-0.425,0.006-0.515-0.188
							c-0.09-0.193-0.006-0.423,0.186-0.514c1.444-0.681,2.935-1.269,4.464-1.742c0.213-0.066,0.439,0.053,0.505,0.266
							s-0.053,0.439-0.266,0.505L214.558,190.036z"/>
						<path style="fill:#B8E2FF;" d="M207.071,193.339c-1.35,0.791-2.651,1.665-3.896,2.615c-0.158,0.12-0.383,0.09-0.504-0.067
							c-0.12-0.157-0.09-0.381,0.066-0.502c1.261-0.976,2.581-1.876,3.952-2.692c0.178-0.106,0.408-0.048,0.514,0.131
							c0.106,0.178,0.048,0.409-0.131,0.515L207.071,193.339z"/>
						<path style="fill:#B8E2FF;" d="M200.478,198.217c-1.152,1.06-2.238,2.192-3.247,3.39c-0.118,0.14-0.326,0.158-0.466,0.04
							c-0.139-0.117-0.157-0.325-0.041-0.464c1.019-1.227,2.117-2.387,3.283-3.474c0.14-0.131,0.36-0.123,0.491,0.017
							c0.131,0.14,0.123,0.36-0.017,0.49L200.478,198.217z"/>
						<path style="fill:#B8E2FF;" d="M195.099,204.409c-0.884,1.292-1.679,2.645-2.372,4.049c-0.074,0.15-0.255,0.211-0.405,0.137
							c-0.149-0.074-0.211-0.254-0.138-0.403c0.696-1.435,1.497-2.819,2.388-4.141c0.098-0.146,0.296-0.185,0.442-0.086
							c0.146,0.098,0.184,0.296,0.086,0.442L195.099,204.409z"/>
						<path style="fill:#B8E2FF;" d="M191.346,211.696c-0.532,1.472-0.952,2.985-1.254,4.521c-0.029,0.149-0.173,0.245-0.322,0.216
							c-0.148-0.029-0.244-0.172-0.216-0.32c0.296-1.566,0.713-3.11,1.245-4.613c0.053-0.151,0.219-0.23,0.37-0.177
							c0.151,0.053,0.23,0.219,0.177,0.37L191.346,211.696z"/>
						<path style="fill:#B8E2FF;" d="M189.616,219.707c-0.122,1.562-0.125,3.134-0.014,4.698c0.01,0.135-0.092,0.253-0.227,0.262
							c-0.135,0.009-0.252-0.092-0.262-0.226c-0.123-1.587-0.132-3.184-0.018-4.773c0.01-0.144,0.135-0.253,0.28-0.243
							s0.253,0.136,0.243,0.28L189.616,219.707z"/>
						<path style="fill:#B8E2FF;" d="M190.037,227.906c0.274,1.546,0.652,3.073,1.119,4.574c0.036,0.115-0.028,0.236-0.143,0.272
							c-0.114,0.036-0.235-0.028-0.271-0.141c-0.483-1.514-0.876-3.057-1.165-4.621c-0.023-0.127,0.061-0.249,0.187-0.272
							c0.127-0.023,0.248,0.061,0.272,0.187L190.037,227.906z"/>
						<path style="fill:#B8E2FF;" d="M192.354,235.807c0.596,1.455,1.276,2.876,2.054,4.24c0.053,0.092,0.021,0.21-0.072,0.263
							c-0.092,0.053-0.21,0.021-0.263-0.071c-0.795-1.377-1.49-2.809-2.1-4.276c-0.044-0.105,0.006-0.225,0.111-0.269
							c0.105-0.044,0.225,0.006,0.269,0.111L192.354,235.807z"/>
						<path style="fill:#B8E2FF;" d="M196.333,243.008c0.934,1.262,1.975,2.444,3.124,3.513c0.069,0.064,0.073,0.172,0.009,0.241
							c-0.064,0.069-0.172,0.073-0.241,0.009c-1.171-1.078-2.233-2.272-3.186-3.545c-0.061-0.081-0.044-0.196,0.037-0.257
							S196.272,242.926,196.333,243.008L196.333,243.008z"/>
						<path style="fill:#B8E2FF;" d="M202.212,248.723c1.297,0.883,2.686,1.63,4.137,2.232c0.076,0.031,0.112,0.118,0.08,0.194
							c-0.031,0.076-0.118,0.111-0.193,0.081c-1.472-0.601-2.884-1.351-4.205-2.239c-0.074-0.05-0.094-0.15-0.044-0.224
							C202.037,248.693,202.137,248.673,202.212,248.723L202.212,248.723z"/>
						<path style="fill:#B8E2FF;" d="M209.701,252.071c1.523,0.391,3.08,0.646,4.648,0.785c0.07,0.006,0.121,0.068,0.115,0.137
							c-0.006,0.069-0.067,0.121-0.136,0.115c-1.581-0.131-3.154-0.38-4.695-0.767c-0.074-0.019-0.12-0.094-0.101-0.169
							C209.55,252.097,209.625,252.052,209.701,252.071L209.701,252.071z"/>
						<path style="fill:#B8E2FF;" d="M217.888,252.982c1.574-0.022,3.148-0.142,4.711-0.339c0.057-0.007,0.109,0.033,0.117,0.09
							c0.007,0.057-0.033,0.109-0.09,0.117c-1.569,0.207-3.15,0.336-4.734,0.366c-0.064,0.001-0.118-0.05-0.119-0.115
							C217.771,253.037,217.823,252.984,217.888,252.982L217.888,252.982z"/>
						<path style="fill:#B8E2FF;" d="M226.101,252.073c1.548-0.306,3.082-0.677,4.602-1.102c0.044-0.012,0.089,0.013,0.101,0.057
							c0.012,0.043-0.013,0.089-0.057,0.101c-1.521,0.434-3.058,0.814-4.609,1.13c-0.051,0.01-0.101-0.023-0.112-0.074
							C226.016,252.134,226.049,252.084,226.101,252.073L226.101,252.073z"/>
						<path style="fill:#B8E2FF;" d="M234.098,249.931c1.498-0.499,2.98-1.043,4.448-1.626c0.031-0.012,0.066,0.003,0.078,0.034
							c0.012,0.031-0.003,0.066-0.033,0.078c-1.467,0.591-2.949,1.145-4.447,1.652c-0.038,0.013-0.079-0.007-0.092-0.045
							C234.039,249.985,234.06,249.944,234.098,249.931L234.098,249.931z"/>
						<path style="fill:#B8E2FF;" d="M241.823,246.931l4.29-2.011c0.019-0.01,0.042-0.003,0.051,0.016
							c0.01,0.018,0.001,0.042-0.017,0.052l-4.283,2.035c-0.025,0.012-0.055,0.001-0.067-0.024
							c-0.012-0.025-0.001-0.055,0.024-0.067L241.823,246.931z"/>
						<path style="fill:#B8E2FF;" d="M249.272,243.291l4.131-2.323c0.007-0.005,0.017-0.002,0.022,0.005
							c0.005,0.007,0.002,0.017-0.006,0.022l-4.12,2.346c-0.014,0.008-0.031,0.003-0.039-0.011
							c-0.008-0.014-0.003-0.031,0.011-0.039L249.272,243.291z"/>
						<polygon style="fill:#B8E2FF;" points="256.447,239.104 258.398,237.818 256.454,239.115 256.445,239.113 256.447,239.104 
													"/>
					</g>
				</g>
				<g>
					<path style="fill:#BDD5FF;" d="M218.719,124.357c0.104-0.244-12.681,7.678-12.681,7.678l3.321,21.535l6.272-16.109l16.517-3.15
						l23.538-22.137L218.719,124.357z"/>
					<polygon style="fill:#8ABAFF;" points="255.686,112.174 209.359,153.571 215.63,137.462 					"/>
					<polygon style="fill:#DEEBFF;" points="255.686,112.174 194.397,125.19 206.038,132.036 255.686,112.174 215.63,137.462 
						235.426,149.685 					"/>
				</g>
			</g>
		</g>
	</g>
	<g>
		<g style="opacity:0.5;">
			<defs>
				
					<rect id="SVGID_00000134239745881034735220000003967601318707404947_" x="452.768" y="323.003" style="opacity:0.5;" width="114.234" height="87.224"/>
			</defs>
			<clipPath id="SVGID_00000024001295303587463110000000883222735686010520_">
				<use xlink:href="#SVGID_00000134239745881034735220000003967601318707404947_"  style="overflow:visible;"/>
			</clipPath>
			<path style="opacity:0.2;clip-path:url(#SVGID_00000024001295303587463110000000883222735686010520_);fill:#5275A0;" d="
				M626.193,389.721c-2.965,0-5.807,0.508-8.469,1.406c-0.641-22.137-18.775-39.889-41.067-39.889
				c-22.698,0-41.098,18.4-41.098,41.098c0,1.039,0.052,2.065,0.127,3.084c-3.965-6.69-11.238-11.19-19.579-11.19
				c-12.574,0-22.767,10.193-22.767,22.767c0,1.783,0.226,3.51,0.613,5.175c-2.348-1.307-5.048-2.059-7.926-2.059
				c-9.015,0-16.323,7.308-16.323,16.323c0,9.015,7.308,16.323,16.323,16.323c9.015,0,128.686,0,140.166,0
				c14.646,0,26.52-11.873,26.52-26.52C652.713,401.595,640.839,389.721,626.193,389.721z"/>
		</g>
		<ellipse style="opacity:0.55;fill:#D9E8FF;" cx="561.208" cy="448.036" rx="97.368" ry="7.696"/>
		<g>
			<g>
				<path style="fill:#BDD0FF;" d="M590.735,386.709c-5.357-18.449-1.377-38.343,4.949-56.482c1.521-4.36,3.262-8.812,6.52-12.085
					c1.666-1.674,3.972-3.046,6.286-2.577c3.396,0.689,4.825,4.735,5.208,8.179c2.417,21.747-11.913,41.68-15.539,63.259"/>
			</g>
			<g>
				<path style="fill:#BDD0FF;" d="M575.48,377.447c-1.047-5.477-2.509-10.93-5.11-15.863c-2.6-4.933-6.417-9.344-11.35-11.944
					c-2.189-1.154-5.111-1.847-6.961-0.204c-2.034,1.805-1.379,5.132-0.177,7.571c6.581,13.357,23.399,19.343,29.795,32.79"/>
			</g>
			<g>
				<path style="fill:#BDD0FF;" d="M583.243,388.344c-4.173-7.79-8.201-15.745-10.504-24.277
					c-2.303-8.532-2.793-17.764,0.086-26.119c0.888-2.578,3.099-5.527,5.676-4.638c0.95,0.327,1.65,1.128,2.258,1.928
					c4.8,6.318,6.643,14.39,7.511,22.277c0.868,7.887,0.895,15.896,2.627,23.64c0.258,1.154,0.583,2.353,1.394,3.213
					c0.812,0.86,2.262,1.231,3.191,0.5c0.522-0.41,0.777-1.066,0.979-1.698c1.102-3.45,18.214-38.977,33.715-41.473
					c1.254-0.202,2.537-0.341,3.795-0.133c19.438,3.231-24.354,43.851-24.683,49.899c15.845-13.582,19.202-16.085,26.415-17.385
					c5.559-1.002,15.243,3.926,12.057,10.722c-2.204,4.701-7.704,6.801-12.796,7.817c-5.561,1.109-11.278,1.466-16.734,3.015
					c-5.455,1.549-10.822,4.535-13.599,9.48"/>
			</g>
		</g>
		<path style="fill:#FFFFFF;" d="M626.996,394.996c-2.965,0-5.807,0.508-8.47,1.406c-0.641-22.137-18.775-39.889-41.067-39.889
			c-22.698,0-41.098,18.4-41.098,41.098c0,1.039,0.051,2.065,0.127,3.084c-3.965-6.69-11.238-11.19-19.579-11.19
			c-12.574,0-22.767,10.193-22.767,22.767c0,1.783,0.226,3.51,0.613,5.175c-2.348-1.307-5.048-2.059-7.926-2.059
			c-9.015,0-16.323,7.308-16.323,16.323s7.308,16.323,16.323,16.323s128.686,0,140.166,0c14.646,0,26.52-11.873,26.52-26.52
			C653.515,406.87,641.642,394.996,626.996,394.996z"/>
	</g>
	<g>
		<path style="fill:#D9E8FF;" d="M154.014,418.896c0,2.268,18.515,4.107,41.354,4.107c22.839,0,41.354-1.839,41.354-4.107
			c0-2.268-18.515-4.107-41.354-4.107C172.529,414.789,154.014,416.628,154.014,418.896z"/>
		<path style="fill:#222B70;" d="M217.562,413.067c0.348,0.636,2.01,2.108,4.315,3.079c2.303,0.968,7.186,1.424,4.473,2.278
			c-2.712,0.853-5.875,0.337-7.478,0.095c-1.601-0.244-3.153-0.276-5.044-0.287c-2.492-0.016-2.511-0.16-2.175-2.808
			C212.115,411.78,216.44,411.009,217.562,413.067z"/>
		<path style="fill:#222B70;" d="M172.413,411.745c0.139,0.735-0.968,2.962,1.013,4.597c1.979,1.632,6.48,3.355,3.498,3.42
			c-2.982,0.065-5.842-0.586-7.361-1.292c-1.516-0.707-0.306-1.816-2.186-2.375c-2.479-0.738-1.967-2.454-0.679-3.516
			C168.347,409.082,171.967,409.368,172.413,411.745z"/>
		<path style="fill:#4460EA;" d="M181.911,337.587c0,0-5.938-16.448,10.909-29.999c0,0,9.03,3.387,16.26,3.796
			c5.694,0.322,8.585-0.172,8.585-0.172s0.479,14.613,0.499,22.489L181.911,337.587z"/>
		<path style="fill:#4460EA;" d="M219.53,364.908c0.326-7.354-8.139-6.39-11.26-0.896c-6.455,11.362,2.38,37.526,3.549,49.924
			c1.213,0.443,3.247,0.788,4.467,0.263c0.842-0.362,1.299-1.353,1.299-1.353C217.398,397.637,219.181,372.772,219.53,364.908z"/>
		<path style="fill:#4460EA;" d="M208.563,366.022c0.973,3.003,11.779,6.161,10.903-4.769c-0.388-4.848-1.424-31.619-1.623-34.199
			c-0.201-2.582-0.657-6.353-1.982-6.823c-6.62-2.354-18.329,5.801-16.588,15.491C200.436,342.199,206.544,359.794,208.563,366.022z
			"/>
		<path style="fill:#4460EA;" d="M191.559,370.196c2.612-6.937-5.874-8.164-10.688-3.89c-11.272,10.008-11.709,33.591-14.471,45.762
			c1.568,1.011,4.057,1.374,4.928,1.329c0.924-0.047,1.344-0.647,1.344-0.647C177.251,398.166,188.765,377.613,191.559,370.196z"/>
		<path style="fill:#4460EA;" d="M180.411,367.933c-0.295,3.127,8.712,9.591,12.257-0.849c1.573-4.63,8.303-31.995,9.147-34.456
			c0.843-2.464,0.612-7.546-0.427-8.451c-5.197-4.524-16.929-0.546-19.178,9.051C180.706,339.643,181.023,361.446,180.411,367.933z"
			/>
		<g>
			<path style="fill:#92A7F4;" d="M222.626,263.355c0,0,6.347,7.57,7.042,33.751l-7.182,2.549l-6.951-19.462L222.626,263.355z"/>
			<path style="fill:#7C98E5;" d="M217.445,275.658c-0.287,2.655-0.56,5.38-0.755,7.77l1.493,4.18
				c2.162-5.69,5.646-17.757,6.449-20.565c-1.133-2.644-2.007-3.688-2.007-3.688L217.445,275.658z"/>
			<g>
				<path style="fill:#3B2E7A;" d="M211.068,230.543c1.484,0.403,2.268,2.208,2.772,3.443c0.607,1.487,0.911,3.069,1.109,4.646
					c0.139,1.097,0.221,2.253-0.242,3.268c-0.236,0.519-0.604,0.973-0.968,1.421c-0.206,0.254-0.417,0.513-0.698,0.693
					c-0.281,0.18-0.649,0.27-0.966,0.155c-0.462-0.168-0.648-0.679-0.779-1.129c-0.855-2.934-1.791-5.902-3.548-8.455"/>
			</g>
			<g>
				<path style="fill:#F2A181;" d="M212.714,239.835c0.029-0.934,1.073-1.543,1.977-0.576c0.749,0.801,0.948,2.321,0.99,3.444
					c0.051,1.345-1.056,1.61-1.967,1.798"/>
			</g>
			<path style="fill:#92A7F4;" d="M222.626,263.355c-1.831-1.979-7.644-5.241-15.413-5.01c-5.352,0.159-19.929,0.991-21.558,4.365
				c-0.833,1.724-1.726,19.383-0.507,25.472c0.917,4.578,3.262,15.92,3.262,18.658c0,2.737-1.561,3.91-0.832,4.705
				c1.631,1.78,12.785,2.528,18.021,2.528c4.661,0,12.594-1.171,12.996-2.577c0.597-2.088-0.91-2.01-1.114-4.199
				s-0.792-16.398,0.063-18.723c1.544-4.198,2.293-11.045,3.519-14.15C221.993,272.067,224.457,265.335,222.626,263.355z"/>
			<path style="fill:#7C98E5;" d="M189.245,277.641c-0.555,1.089-4.328,6.804-4.328,6.804l-0.153,0.684
				c0.093,1.184,0.218,2.228,0.384,3.054c0.917,4.578,3.262,15.92,3.262,18.658c0,2.737-1.494,3.86-0.832,4.705
				c1.286,1.642,22.317,5.335,21.283,0.75c-0.094-0.415-17.651-13.036-17.746-13.459c-0.809-3.622-1.514-6.231-1.869-8.873
				C188.391,283.607,189.8,276.552,189.245,277.641z"/>
			<path style="fill:#FFBE9D;" d="M211.446,252.029c0,0,0.049,5.745,0.295,5.976c0.246,0.232,1.45,0.768,1.45,0.768
				s-0.859,4.992-2.187,4.622c-1.328-0.371-10.096-4.543-10.096-4.543s1.243-0.477,1.243-0.94c0-0.463-1.18-9.497-1.18-9.497"/>
			<path style="fill:#FFBE9D;" d="M205.357,231.164c1.278,0.328,4.646-0.328,5.575,0.985c0.929,1.313,1.742,4.486,2.091,5.362
				c0.694,1.743,1.146,3.605,1.65,5.402c0.657,2.341,1.739,6.63-0.692,8.589c-0.699,0.563-1.01,0.749-1.876,0.896
				c-1.151,0.196-2.296,0.419-3.447,0.613c-1.784,0.302-3.76,0.653-5.532,0.111c-2.367-0.725-3.665-3.79-4.274-5.872l-3.485-11.928
				L205.357,231.164z"/>
			<path style="fill:#4460EA;" d="M211.663,265.635c0,0,0.513,22.414,1.481,36.049l-3.498,4.546l-2.405-5.693
				c0,0-1.015-16.445,2.276-34.747L211.663,265.635z"/>
			<path style="fill:#2B50D8;" d="M212.469,263.667l-0.082,0.308c-0.156,0.583-0.399,1.143-0.724,1.661l0,0l-2.147,0.156
				c0,0-1.46-0.72-1.653-1.495c-0.193-0.775,2.396-2.043,2.396-2.043l0.314,0.117c0.725,0.268,1.368,0.704,1.869,1.267
				L212.469,263.667z"/>
			<path style="fill:#FFFFFF;" d="M202.002,256.515c0,0-1.373,0.803-2.449,2.338c1.105,2.38,3.6,6.606,6.348,8.532
				c1.284-3.246,4.357-5.132,4.357-5.132S202.771,260.997,202.002,256.515z"/>
			<path style="fill:#FFFFFF;" d="M210.259,262.253c0,0,2.68,1.001,4.27,3.823c0,0,0.514-3.818-0.58-7.096
				c0,0-1.758-2.119-2.367-2.163C211.834,259.518,210.259,262.253,210.259,262.253z"/>
			<g>
				<g>
					<path style="fill:#F2A181;" d="M209.921,312.296c2.66,0.377,3.642,1.308,5.141,2.703c0.123,0.114,0.252,0.257,0.224,0.417
						c-0.034,0.2-0.284,0.289-0.496,0.321c-1.235,0.187-1.437-0.557-2.591-1.011c-0.78-0.307-1.554-0.625-2.329-0.943"/>
				</g>
				<g>
					<g>
						<path style="fill:#CECAFF;" d="M218.951,294.038l-9.424,28.454c-0.253,0.764,0.207,1.423,0.998,1.428l19.663,1.625
							c0.705,0.005,1.422-0.516,1.648-1.197l10.133-28.021c0.253-0.764-0.916-1.856-1.707-1.861l-19.663-1.625
							C219.894,292.837,219.177,293.358,218.951,294.038z"/>
					</g>
					<g>
						<path style="fill:#FFFFFF;" d="M219.597,294.782l-9.292,28.016c-0.253,0.764,0.207,1.423,0.998,1.428l19.663,1.625
							c0.705,0.005,1.422-0.516,1.648-1.197l9.293-28.016c0.253-0.764-0.207-1.423-0.998-1.428l-19.663-1.625
							C220.54,293.581,219.823,294.101,219.597,294.782z"/>
					</g>
				</g>
				<g>
					<path style="fill:#FFBE9D;" d="M202.43,310.308c2.063,0.405,7.56,1.951,8.137,2.207c0.69,0.306,2.967,1.933,3.506,2.442
						c2.069,1.954,1.011,2.867,1.826,5.517c0.042,0.137,0.05,0.277,0.051,0.42c0.001,0.277-0.396,0.515-0.796,0.257
						c-0.215,0.342-0.854,0.131-1.163-0.241c0.005,0.265-0.389,0.432-1.022,0.102c-0.341-0.178-0.28-0.161-1.07-0.826
						c-0.565-0.475-1.221-0.851-2.238-1.283c-0.684-0.291-1.556-0.551-2.183-0.939c-0.836-0.518-2.325-0.641-3.059-2.887
						c-0.162-0.496-0.68-0.803-1.147-1.079c-1.121-0.662-2.241-1.324-3.362-1.987"/>
				</g>
				<path style="fill:#92A7F4;" d="M189.754,273.858c-0.875,2.938-4.513,23.301-4.513,23.301l20.496,13.984l-1.705,4.224
					c0,0-24.523-7.758-26.455-13.06c-1.932-5.302-1.842-29.255,4.968-37.658c2.168-2.675,6.513-4.025,6.513-4.025"/>
				<g>
					<path style="fill:#F2A181;" d="M210.775,317.64c0.329,0.152,0.65,0.32,0.956,0.513c0.31,0.175,0.619,0.421,0.862,0.689
						c0.265,0.254,0.464,0.56,0.686,0.841c0.2,0.3,0.401,0.594,0.58,0.915c-0.302-0.211-0.557-0.471-0.809-0.728
						c-0.231-0.276-0.482-0.529-0.701-0.805c-0.226-0.277-0.47-0.493-0.75-0.727C211.321,318.113,211.045,317.882,210.775,317.64z"
						/>
				</g>
				<g>
					<path style="fill:#F2A181;" d="M211.904,316.361c0.419,0.186,0.749,0.524,1.058,0.849c0.31,0.336,0.6,0.671,0.825,1.106
						l0.6,1.189c0.189,0.405,0.393,0.805,0.552,1.232c-0.301-0.342-0.558-0.711-0.81-1.086c-0.225-0.39-0.472-0.772-0.642-1.194
						c-0.165-0.374-0.464-0.73-0.708-1.094C212.507,317.012,212.254,316.643,211.904,316.361z"/>
				</g>
				<g>
					<path style="fill:#F2A181;" d="M213.2,315.326c0.297,0.315,0.649,0.57,0.957,0.88c0.152,0.146,0.323,0.323,0.436,0.521
						c0.116,0.186,0.213,0.383,0.312,0.579c0.383,0.787,0.647,1.643,0.674,2.524c-0.338-0.81-0.629-1.603-0.972-2.387
						c-0.189-0.397-0.303-0.787-0.602-1.096C213.731,316.02,213.429,315.699,213.2,315.326z"/>
				</g>
			</g>
			<g>
				<path style="fill:#3B2E7A;" d="M197.545,245.181c0.803-0.443,1.419-0.91,1.942-0.185c0.277,0.384,0.446,0.915,0.919,1.048
					c0.471,0.132,0.959-0.268,1.075-0.717c0.116-0.45-0.031-0.919-0.177-1.361c-0.323-0.978-0.645-1.957-0.968-2.935
					c-0.316-0.958-0.629-2.011-0.226-2.939c0.204-0.469,0.575-0.857,0.983-1.187c1.33-1.075,3.065-1.596,4.782-1.927
					c1.717-0.331,3.475-0.5,5.147-0.995c0.702-0.208,1.399-0.481,1.96-0.93c0.907-0.725,1.376-1.865,1.389-2.986
					c0.013-1.12-0.396-2.22-1.005-3.182c-0.126,0.385-0.299,0.756-0.514,1.104c-0.209-0.515-0.53-0.989-0.937-1.385
					c-0.5,2.628-12.244,1.75-14.988,2.908c-1.901,0.803-3.475,1.328-3.417,4.231c-0.055,0.189-0.219,0.329-0.372,0.462
					c-1.685,1.459-2.415,3.233-2.627,5.867c-0.259,3.223,1.733,6.712,3.686,9.369c0.491,0.668,0.764,1.142,1.45,1.634
					c0.686,0.492,1.882,0.733,2.729,0.581c0.847-0.152,2.516-0.084,2.532-0.896c0.011-0.581-1.307-1.618-1.672-2.086"/>
			</g>
			<g>
				<path style="fill:#FFBE9D;" d="M200.62,248.226c0,0,0.138,0.54-0.22,0.966c-0.314,0.373-0.952,0.319-1.39,0.186
					c-1.248-0.38-2.108-1.526-2.343-2.709c-0.277-1.394,0.518-2.788,1.872-2.425c0.792,0.212,1.287,1.059,1.279,1.835"/>
			</g>
			<g>
				<path style="fill:#F2A181;" d="M211.441,252.52l-3.767,0.653c0,0,1.257,1.326,3.816,1.326"/>
			</g>
		</g>
	</g>
	<g>
		<g>
			<g>
				<polyline style="fill:#9999EF;" points="524.537,293.554 529.396,295.881 527.598,291.206 				"/>
			</g>
			<g>
				<path style="fill:#9999EF;" d="M529.383,286.918c0.007,4.517-3.649,8.184-8.165,8.19c-4.517,0.007-8.183-3.649-8.19-8.165
					c-0.007-4.516,3.649-8.183,8.165-8.19C525.71,278.746,529.377,282.402,529.383,286.918z"/>
				
					<polyline style="fill:none;stroke:#FFFFFF;stroke-width:1.7376;stroke-linecap:round;stroke-linejoin:round;stroke-miterlimit:10;" points="
					517.608,287.319 520.833,290.436 525.125,284.624 				"/>
			</g>
		</g>
		<g>
			<g>
				<g>
					<g>
						<g>
							<path style="fill:#BDD0FF;" d="M554.503,458.798l-1.329-71.048h4.726l-1.329,71.048c-0.016,0.721-0.479,1.305-1.034,1.305
								C554.981,460.103,554.518,459.518,554.503,458.798z"/>
						</g>
					</g>
				</g>
				<g>
					<g>
						<g>
							<path style="fill:#BDD0FF;" d="M597.937,451.414l-27.449-65.545l4.393-1.744l24.979,66.526
								c0.251,0.676,0.036,1.389-0.48,1.594C598.864,452.45,598.218,452.078,597.937,451.414z"/>
						</g>
					</g>
				</g>
				<g>
					<g>
						<g>
							<path style="fill:#BDD0FF;" d="M513.137,453.035l27.449-65.545l-4.393-1.744l-24.979,66.525
								c-0.251,0.676-0.036,1.389,0.48,1.594C512.211,454.072,512.857,453.699,513.137,453.035z"/>
						</g>
					</g>
				</g>
				<g>
					<g>
						<g>
							<path style="fill:#A3BCEF;" d="M575.644,386.156l-2.795,1.109l25.801,64.925c-0.293-0.141-0.558-0.413-0.712-0.778
								l-27.449-65.545l4.393-1.744L575.644,386.156z"/>
						</g>
					</g>
				</g>
				<g>
					<g>
						<g>
							<path style="fill:#A3BCEF;" d="M557.865,389.62h-3.522l1.318,70.466c-0.041,0.007-0.082,0.016-0.124,0.016
								c-0.556,0-1.019-0.584-1.034-1.305l-1.329-71.048h4.726L557.865,389.62z"/>
						</g>
					</g>
				</g>
				<g>
					<g>
						<g>
							<path style="fill:#A3BCEF;" d="M511.214,452.272l24.979-66.525l4.393,1.744l-0.505,1.205l-2.719-1.079l-24.836,66.144
								c-0.267,0.162-0.567,0.212-0.833,0.106C511.178,453.661,510.963,452.948,511.214,452.272z"/>
						</g>
					</g>
				</g>
			</g>
			<g>
				<g>
					<g>
						<g>
							<path style="fill:#E8F6F7;" d="M522.971,396.204c4.794,3.9,11.897,7.49,29.938,7.845
								c23.732,0.468,36.156-2.226,42.899-14.465c11.261-20.439-2.83-86.475-25.058-71.846
								c-18.581,12.229-22.303,51.265-24.759,56.662C543.534,379.797,511.339,386.74,522.971,396.204z"/>
						</g>
					</g>
				</g>
			</g>
			<g>
				<g>
					<g>
						<path style="fill:#D0E0E2;" d="M548.795,398.993c23.732,0.468,36.156-2.226,42.899-14.465
							c7.686-13.951,3.561-49.144-6.901-65.43c13.39,12.412,19.642,54.827,11.015,70.485c-6.743,12.239-19.167,14.933-42.899,14.465
							c-18.041-0.355-25.144-3.945-29.938-7.845c-1.632-1.328-2.401-2.607-2.511-3.838
							C525.27,395.768,532.654,398.675,548.795,398.993z"/>
					</g>
				</g>
			</g>
		</g>
		<g>
			<g>
				<path style="fill:#153351;" d="M539.055,302.249c-0.994,0.403-1.751,1.342-1.933,2.399c-0.182,1.057,0.218,2.195,1.02,2.907
					c-0.923,0.028-1.541,1.087-1.429,2.004c0.112,0.917,0.731,1.684,1.363,2.357c0.727,0.773,1.613,1.542,2.674,1.562
					c0.766,0.015,1.492-0.377,2.056-0.896c0.404-0.372,0.747-0.817,0.955-1.325c0.237-0.577,0.292-1.21,0.344-1.831
					c0.185-2.182,0.369-4.363,0.553-6.545c0.038-0.444,0.055-0.95-0.258-1.268"/>
			</g>
			<g>
				<path style="fill:#FFBE9D;" d="M557.863,316.663c0.144,2.837-0.058,7.777,0.754,8.509c0.812,0.732,6.53,0.704,6.53,0.704
					s-12.469,11.764-13.307,11.112c-0.838-0.652-11.922-9.684-9.431-10.15c2.491-0.466,4.928-0.367,4.858-1.656
					c-0.071-1.289-0.142-2.579-0.212-3.868"/>
			</g>
			<g>
				<path style="fill:#FFBE9D;" d="M557.863,316.663c0.144,2.837-0.058,7.777,0.754,8.509c0.812,0.732,6.53,0.704,6.53,0.704
					s-12.469,11.764-13.307,11.112c-0.838-0.652-11.922-9.684-9.431-10.15c2.491-0.466,4.928-0.367,4.858-1.656
					c-0.071-1.289-0.142-2.579-0.212-3.868"/>
			</g>
			<path style="fill:#92A7F4;" d="M576.078,359.413l-5.598,18.423l-1.934,2.116c0,0-16.763,1.903-21.885,2.136
				c-0.223,0.01-0.425,0.02-0.607,0.02c-4.211,0.091-3.998-2.105-3.998-2.105c-0.041-0.982-0.111-2.257-0.202-3.685
				c-0.354-5.274-0.982-12.663-1.67-15.569c-0.81-3.462-1.174-4.737-1.883-8.017c-1.569-7.298-1.498-8.685-3.168-17.694
				l10.922-8.776c0,0,1.134,3.361,5.709,3.411c6.124,0.081,8.027-4.211,8.027-4.211l14.89,9.9L576.078,359.413z"/>
			<g>
				<path style="fill:#FFBE9D;" d="M558.069,314.093c-0.331,1.429-0.762,2.835-1.289,4.204c-0.965,2.509-2.389,3.411-5.045,3.474
					c-1.866,0.045-3.732,0.089-5.599,0.134c-1.433,0.034-3.217,0.082-4.373-0.923c-1.147-0.997-1.171-2.675-1.426-4.055
					c-0.326-1.766-0.591-3.544-0.795-5.329c-0.4-3.495-0.565-7.016-0.493-10.534c0.01-0.483,0.024-0.969,0.125-1.441
					c0.041-0.192,0.101-0.39,0.24-0.529c0.173-0.173,0.431-0.221,0.672-0.259c3.497-0.552,7.045-0.779,10.584-0.678
					c2.5,0.071,5.148,0.363,7.127,1.893c1.992,1.539,2.936,4.04,3.788,6.41c0.137,0.381,0.238,0.887-0.092,1.121"/>
			</g>
			<g>
				<g>
					<path style="fill:#FFBE9D;" d="M518.065,441.557c0,0,0.586,3.514,1.053,4.715c0.467,1.201,4.41,0.094,4.67-0.683
						c0.26-0.776-1.24-6.491-1.24-6.491"/>
					<path style="fill:#1F3A71;" d="M525.161,446.583c0.341,1.296,0.771,3.782,0.771,3.782l-3.94,1.716l-0.646-0.607
						c0,0-0.977,1.185-2.186,1.743c-0.897,0.415-2.831,0.952-3.814,1.058c-3.439,0.371-5.97-0.276-6.175-0.753
						c-0.853-1.992,3.71-2.526,4.616-2.765c2.601-0.685,4.046-2.892,4.323-4.332c0.201-1.044-0.058-1.228,0.526-1.196
						c0,0,0.511-0.026,0.985,0.462c0.728,0.751,1.824,1.093,2.799,0.651c0.557-0.253,1.086-0.623,1.397-1.163
						C523.817,445.179,524.82,445.287,525.161,446.583z"/>
				</g>
				<g>
					<g>
						<path style="fill:#285FAF;" d="M546.662,382.088l-11.185,13.534c-0.445,0.091-0.891,0.172-1.336,0.243
							c-2.875,0.476-6.033,0.729-9.181,0.769c-3.32,0.051-6.63-0.142-9.596-0.536c0.871,2.5,3.006,5.699,3.816,9.212
							c2.682,11.6,3.614,27.189,4.302,36.826c0,0-1.296,2.47-5.426,0.587c-6.165-15.234-16.935-46.118-16.834-52.81
							c0.02-1.579,0.871-3.027,2.399-4.343c0.081-0.081,0.162-0.142,0.243-0.212c1.701-1.387,4.16-2.632,7.228-3.715
							c0.091-0.02,0.172-0.061,0.263-0.091c7.308-2.561,17.927-4.282,29.689-5.173c0.091-0.01,0.182-0.01,0.273-0.02
							c0.172-0.01,0.354-0.03,0.536-0.04v0.01c0.091,1.427,0.162,2.693,0.202,3.674c0,0-0.213,2.197,3.998,2.105
							C546.236,382.108,546.439,382.098,546.662,382.088z"/>
					</g>
					<g style="opacity:0.35;">
						<path style="fill:#5275A0;" d="M546.662,382.088l-11.185,13.534c-0.445,0.091-0.891,0.172-1.336,0.243
							c-3.087,0.526-6.124,0.769-9.181,0.769c-0.334-0.638-0.638-1.296-0.779-1.994c-0.192-0.931-0.091-1.903-0.253-2.834
							c-0.314-1.822-1.63-3.371-3.209-4.322c-1.579-0.962-3.422-1.407-5.244-1.701c-4.11-0.658-11.115-0.263-11.854-0.213
							c-0.041,0-0.061,0-0.061,0c0.101-0.071,0.202-0.152,0.304-0.212c2.055-1.468,4.525-2.693,7.228-3.715
							c0.091-0.02,0.172-0.061,0.263-0.091c9.718-3.594,22.391-4.687,29.689-5.173c0.091-0.01,0.182-0.01,0.273-0.02
							c0.182-0.01,0.364-0.02,0.536-0.03c0.091,1.427,0.162,2.693,0.202,3.674c0,0-0.213,2.197,3.998,2.105
							C546.236,382.108,546.439,382.098,546.662,382.088z"/>
					</g>
				</g>
				<g>
					<path style="fill:#FFBE9D;" d="M528.239,449.667c0,0-0.032,3.562,0.22,4.826c0.252,1.264,4.327,0.857,4.718,0.137
						c0.391-0.72-0.096-6.607-0.096-6.607"/>
					<path style="fill:#1F3A71;" d="M534.357,455.846c0.111,1.335,0.104,3.858,0.104,3.858l-4.178,1.007l-0.532-0.71
						c0,0-1.167,0.997-2.455,1.338c-0.956,0.253-2.953,0.447-3.94,0.38c-3.451-0.231-5.832-1.307-5.951-1.812
						c-0.495-2.11,4.092-1.845,5.025-1.923c2.68-0.223,4.486-2.147,5.009-3.517c0.379-0.994,0.156-1.219,0.726-1.086
						c0,0,0.508,0.063,0.89,0.626c0.587,0.866,1.607,1.393,2.644,1.126c0.593-0.152,1.178-0.425,1.577-0.903
						C533.277,454.231,534.245,454.51,534.357,455.846z"/>
				</g>
				<g>
					<path style="fill:#285FAF;" d="M573.377,377.84c1.642,3.821,2.721,10.728,1.073,13.685c-1.445,2.594-2.13,4.198-4.594,5.015
						c-10.526,3.489-20.502,2.051-32.083,0.514c4.905,13.255-2.205,41.645-3.313,53.681c-4.453,1.976-6.972-0.126-6.972-0.126
						c0.505-24.5-4.955-58.72-1.65-64.574c2.009-3.559,25.988-8.257,26.465-8.195"/>
				</g>
			</g>
			<g>
				<path style="fill:#153351;" d="M554.999,309.797c0.203-0.842,1.512-0.905,2.105-0.275c0.594,0.63,0.66,1.577,0.693,2.443
					c0.042,1.073-0.489,2.164-1.055,3.077s-1.409,1.439-2.183,0.693c-0.065,1.572,1.198,2.838,2.294,2.906
					c1.096,0.068,2.189-0.688,2.512-1.737c4.742,1.742,6.24-5.122,6.529-8.554c0.226-2.689-0.667-5.958-2.136-8.222
					c-0.8-1.233-2.002-2.256-3.433-2.59c-0.146-1.743-1.42-3.231-2.938-4.1c-1.518-0.87-2.884-1.263-4.599-1.607
					c-1.058-0.212-3.938,0.561-4.479,1.642c-2.014-1.158-3.807-0.043-5.406,0.146c-1.599,0.188-3.38,1.669-2.695,3.126
					c-2.508-0.762-5.232,2.097-4.479,4.608c0.752,2.512,4.386,3.489,6.394,1.804c0.735,1.642,2.607,2.569,4.406,2.578
					c1.798,0.009,3.518-0.757,5.028-1.734c-0.507,0.929-0.665,2.2-0.177,3.281c0.488,1.081,0.894,1.882,2.493,1.552
					c0,0-0.141,2.493,0.424,2.258C554.86,310.855,554.999,309.797,554.999,309.797z"/>
			</g>
			<g>
				<path style="fill:#92A7F4;" d="M522.948,371.63c6.386-9.204,9.797-16.456,15.356-26.183l7.752-19.19
					c0,0-2.612,0.145-3.121,0.185c-2.179,0.173-4.396,0.46-6.456,1.222c-2.963,1.097-6.021,3.113-7.464,6.007
					c-1.287,2.581-2.072,5.386-3.161,8.052c-1.217,2.977-2.507,5.924-3.806,8.867c-2.579,5.84-5.222,11.664-7.395,17.67"/>
			</g>
			<polygon style="fill:#7C98E5;" points="537.231,347.341 536.191,341.113 528.546,357.864 531.078,358.481 			"/>
			<g>
				<g>
					<path d="M573.967,335.037c0.399,7.623,0.433,15.273,0.023,22.896c-0.411,7.645-1.696,15.151-2.38,22.759
						c-0.039,0.434,0.652,0.517,0.754,0.102c1.771-7.224,2.223-14.971,2.612-22.374c0.409-7.798,0.323-15.594-0.226-23.383
						C574.713,334.539,573.94,334.531,573.967,335.037L573.967,335.037z"/>
				</g>
			</g>
			<g>
				
					<rect x="505.307" y="379.535" transform="matrix(-1 -1.224647e-16 1.224647e-16 -1 1069.6848 761.1941)" style="fill:#AABDE2;" width="59.07" height="2.124"/>
				<path style="fill:#AABDE2;" d="M494.77,381.659h47.285l-8.478-27.641c-0.468-1.526-1.878-2.568-3.474-2.568h-41.41
					c-1.585,0-2.718,1.533-2.254,3.049L494.77,381.659z"/>
				<path style="fill:#E1E8F9;" d="M494.176,381.659h46.573l-8.478-27.641c-0.468-1.526-1.878-2.568-3.474-2.568h-41.41
					c-1.585,0-2.718,1.533-2.253,3.049l8.122,26.479C493.38,381.383,493.753,381.659,494.176,381.659z"/>
				<path style="fill:#AABDE2;" d="M515.882,366.864c0,2.632-2.134,4.766-4.766,4.766c-2.632,0-4.766-2.134-4.766-4.766
					c0-2.632,2.134-4.766,4.766-4.766C513.748,362.098,515.882,364.232,515.882,366.864z"/>
			</g>
			<g>
				<path style="fill:#7C98E5;" d="M567.582,340.046c-2.435,11.013-3.205,23.711-3.892,31.584
					c-9.134,0.673-11.695,4.18-20.062,7.905c0,0-6.607-1.097-7.302,1.395c-0.4,1.438,7.735,2.582,7.735,2.582
					c7.755,0.036,26.547-3.597,27.931-3.977c1.384-0.38,7.073-28.411,7.234-42.52c0.023-2.004-0.047-4.178-1.301-5.741
					c-0.66-0.822-1.585-1.386-2.523-1.866c-5.457-2.79-9.498-3.552-15.614-3.941"/>
			</g>
			<g>
				<path style="fill:#FFBE9D;" d="M544.782,381.241c-0.919-1.158-2.594-1.325-4.072-1.289c-1.093,0.027-2.185,0.114-3.269,0.261
					c-0.494,0.067-1.062,0.183-1.114,0.718c-0.052,0.535,2.397-0.001,3.681,0.371c-2.516,0.216-5.044,0.285-7.567,0.206
					c-0.294-0.009-0.597-0.019-0.87,0.09c-0.273,0.108-0.509,0.369-0.49,0.663c0.014,0.229,0.175,0.422,0.346,0.576
					c0.705,0.634,1.669,0.885,2.603,1.049c3.859,0.675,7.914,0.559,11.502-1.016"/>
			</g>
			<g>
				<path style="fill:#92A7F4;" d="M567.582,340.046c-0.201,11.772-1.884,22.459-1.654,34.23
					c-9.134,0.673-13.776,2.448-22.143,6.173c0,0-0.498,1.661,0.276,3.063c0.638,0.233,27.322-0.894,29.516-2.915
					c1.974-1.819,5.487-29.473,5.649-43.582c0.023-2.004-0.047-4.178-1.301-5.741c-0.66-0.822-1.585-1.386-2.523-1.866
					c-5.457-2.79-9.498-3.552-15.614-3.941"/>
			</g>
		</g>
	</g>
</g>
<g id="DESIGNED_BY_FREEPIK">
	<g>
		<g id="XMLID_1_">
			<g id="XMLID_22_">
				<path id="XMLID_57_" style="fill:#1D262D;" d="M385.105,462.676c-0.433,0.442-0.804,0.931-1.108,1.452l-0.466-0.24
					c-0.066-0.298-0.349-0.503-0.658-0.467c-0.331,0.039-0.568,0.339-0.529,0.67c0.039,0.331,0.339,0.568,0.67,0.529
					c0.065-0.008,0.127-0.026,0.184-0.053l0.451,0.234c-0.251,0.554-0.433,1.139-0.539,1.744l0.746,0.131
					c0.231-1.306,0.85-2.506,1.792-3.472L385.105,462.676z"/>
				<path id="XMLID_29_" style="fill:#1D262D;" d="M390.592,460.373c-0.171,0-0.341,0.007-0.51,0.018l-0.073-0.626
					c0.188-0.149,0.296-0.39,0.266-0.645c-0.046-0.394-0.402-0.675-0.795-0.629c-0.394,0.047-0.675,0.402-0.629,0.796
					c0.03,0.254,0.189,0.461,0.405,0.564l0.073,0.624c-0.714,0.116-1.403,0.332-2.06,0.646l0.327,0.684
					c0.934-0.447,1.941-0.673,2.995-0.673c0.496,0,0.993,0.053,1.475,0.157l0.161-0.741
					C391.693,460.432,391.143,460.373,390.592,460.373z"/>
				<path id="XMLID_28_" style="fill:#1D262D;" d="M397.194,462.921c0.331-0.041,0.566-0.342,0.525-0.673
					c-0.04-0.331-0.342-0.565-0.672-0.525c-0.31,0.038-0.535,0.304-0.53,0.608l-0.416,0.363c-0.418-0.43-0.89-0.813-1.408-1.139
					l-0.403,0.641c1.134,0.715,2.02,1.727,2.563,2.926l0.69-0.313c-0.251-0.555-0.567-1.072-0.942-1.545l0.402-0.352
					C397.065,462.926,397.129,462.928,397.194,462.921z"/>
				<path id="XMLID_27_" style="fill:#1D262D;" d="M390.044,470.582c-0.386,0.023-0.774,0.034-1.157,0.034
					c-0.88,0-1.732-0.061-2.478-0.179c-0.391-0.063-0.847-0.155-1.271-0.292c1.046,1.86,3.069,3.125,5.389,3.125
					c2.855,0,5.262-1.916,5.949-4.504c-0.682,0.449-1.506,0.825-2.459,1.123C392.839,470.257,391.464,470.496,390.044,470.582z"/>
				<path id="XMLID_23_" style="fill:#1D262D;" d="M390.592,461.889c-3.353,0-6.079,2.666-6.079,5.943
					c0,0.426,0.046,0.849,0.137,1.262c0.674,0.482,2.706,0.89,5.348,0.73c2.879-0.173,5.297-0.957,6.672-2.158
					c-0.005-0.195-0.021-0.391-0.045-0.582C396.244,464.123,393.651,461.889,390.592,461.889z M388.433,468.404
					c-1.021,0-1.85-0.83-1.85-1.85c0-1.021,0.829-1.85,1.85-1.85c1.02,0,1.85,0.829,1.85,1.85
					C390.282,467.574,389.452,468.404,388.433,468.404z M393.17,467.496c-0.75,0-1.36-0.61-1.36-1.36s0.61-1.36,1.36-1.36
					s1.36,0.61,1.36,1.36S393.92,467.496,393.17,467.496z"/>
			</g>
			<path id="XMLID_20_" style="fill:#1D262D;" d="M406.596,463.757c-0.295-0.116-0.806-0.309-1.383-0.237
				c-0.551,0.068-0.844,0.341-0.844,1.007v0.865h2.228v1.718h-2.228v5.454h-1.932v-5.454h-1.34v-1.718h1.34v-0.888
				c0-1.681,0.896-2.783,2.568-2.783c0.642,0,1.157,0.122,1.59,0.309V463.757z"/>
			<path id="XMLID_18_" style="fill:#1D262D;" d="M411.298,467.089c-0.177-0.03-0.358-0.047-0.526-0.047
				c-0.895,0-1.51,0.548-1.51,1.614v3.907h-1.932v-7.172h1.873v0.785c0.451-0.674,1.14-0.978,2.021-0.978
				c0.414,0,0.848,0.128,1.094,0.337L411.298,467.089z"/>
			<path id="XMLID_15_" style="fill:#1D262D;" d="M418.965,468.966c0,0.222-0.015,0.488-0.037,0.651h-5.084
				c0.207,1.036,0.933,1.487,1.843,1.487c0.621,0,1.295-0.251,1.814-0.688l1.132,1.243c-0.813,0.747-1.85,1.088-3.057,1.088
				c-2.198,0-3.723-1.495-3.723-3.753c0-2.257,1.481-3.797,3.627-3.797C417.544,465.199,418.958,466.731,418.965,468.966z
				 M413.851,468.301h3.175c-0.177-0.918-0.732-1.436-1.562-1.436C414.554,466.864,414.022,467.412,413.851,468.301z"/>
			<path id="XMLID_12_" style="fill:#1D262D;" d="M426.618,468.966c0,0.222-0.015,0.488-0.037,0.651h-5.084
				c0.207,1.036,0.933,1.487,1.843,1.487c0.621,0,1.295-0.251,1.814-0.688l1.132,1.243c-0.815,0.747-1.851,1.088-3.057,1.088
				c-2.198,0-3.723-1.495-3.723-3.753c0-2.257,1.48-3.797,3.626-3.797C425.197,465.199,426.611,466.731,426.618,468.966z
				 M421.504,468.301h3.176c-0.178-0.918-0.733-1.436-1.563-1.436C422.207,466.864,421.674,467.412,421.504,468.301z"/>
			<path id="XMLID_9_" style="fill:#1D262D;" d="M434.964,468.974c0,2.153-1.495,3.775-3.471,3.775
				c-0.963,0-1.644-0.378-2.109-0.933v3.708h-1.925v-10.133h1.888v0.792c0.466-0.585,1.154-0.984,2.139-0.984
				C433.469,465.199,434.964,466.82,434.964,468.974z M429.287,468.974c0,1.132,0.748,1.976,1.843,1.976
				c1.14,0,1.851-0.881,1.851-1.976c0-1.096-0.711-1.977-1.851-1.977C430.035,466.998,429.287,467.841,429.287,468.974z"/>
			<path id="XMLID_6_" style="fill:#1D262D;" d="M438.068,463.046c0,0.695-0.54,1.229-1.235,1.229c-0.696,0-1.23-0.533-1.23-1.229
				c0-0.696,0.533-1.244,1.23-1.244C437.527,461.802,438.068,462.349,438.068,463.046z M437.809,472.563h-1.931v-7.172h1.931
				V472.563z"/>
			<path id="XMLID_2_" style="fill:#1D262D;" d="M441.032,467.945l2.701-2.554h2.369l-3.479,3.375l3.501,3.797h-2.376l-2.716-2.901
				v2.901h-1.932v-10.657h1.932V467.945z"/>
		</g>
		<g>
			<path style="fill:#1D262D;" d="M309.413,472.499v-1.055c-0.527,0.718-1.391,1.23-2.388,1.23c-1.846,0-3.149-1.406-3.149-3.706
				c0-2.256,1.289-3.721,3.149-3.721c0.952,0,1.816,0.469,2.388,1.245v-3.765h1.099v9.771H309.413z M309.413,470.58v-3.208
				c-0.395-0.615-1.245-1.143-2.124-1.143c-1.421,0-2.271,1.172-2.271,2.739c0,1.567,0.85,2.725,2.271,2.725
				C308.168,471.693,309.017,471.195,309.413,470.58z"/>
			<path style="fill:#1D262D;" d="M311.932,468.954c0-2.051,1.465-3.706,3.487-3.706c2.138,0,3.398,1.67,3.398,3.794v0.278h-5.728
				c0.088,1.333,1.025,2.446,2.549,2.446c0.806,0,1.626-0.322,2.183-0.893l0.527,0.718c-0.703,0.703-1.655,1.084-2.813,1.084
				C313.441,472.674,311.932,471.166,311.932,468.954z M315.404,466.156c-1.509,0-2.256,1.274-2.314,2.358h4.644
				C317.718,467.46,317.015,466.156,315.404,466.156z"/>
			<path style="fill:#1D262D;" d="M319.607,471.561l0.571-0.791c0.469,0.542,1.362,1.011,2.329,1.011c1.084,0,1.67-0.513,1.67-1.216
				c0-1.714-4.38-0.659-4.38-3.281c0-1.099,0.952-2.036,2.637-2.036c1.201,0,2.051,0.454,2.622,1.025l-0.513,0.762
				c-0.424-0.513-1.201-0.894-2.109-0.894c-0.967,0-1.567,0.483-1.567,1.113c0,1.553,4.379,0.527,4.379,3.281
				c0,1.187-0.952,2.139-2.783,2.139C321.306,472.674,320.325,472.323,319.607,471.561z"/>
			<path style="fill:#1D262D;" d="M326.477,463.68c0-0.41,0.337-0.747,0.732-0.747c0.41,0,0.747,0.337,0.747,0.747
				c0,0.41-0.337,0.732-0.747,0.732C326.814,464.413,326.477,464.091,326.477,463.68z M326.667,472.499v-7.075h1.099v7.075H326.667z
				"/>
			<path style="fill:#1D262D;" d="M329.582,474.315l0.557-0.82c0.586,0.703,1.289,0.967,2.3,0.967c1.172,0,2.27-0.571,2.27-2.124
				v-1.011c-0.512,0.718-1.376,1.26-2.373,1.26c-1.845,0-3.149-1.377-3.149-3.662c0-2.271,1.289-3.677,3.149-3.677
				c0.952,0,1.802,0.469,2.373,1.245v-1.069h1.099v6.87c0,2.344-1.641,3.076-3.369,3.076
				C331.237,475.37,330.417,475.135,329.582,474.315z M334.709,470.463v-3.091c-0.381-0.615-1.23-1.143-2.109-1.143
				c-1.421,0-2.271,1.128-2.271,2.695c0,1.553,0.849,2.695,2.271,2.695C333.478,471.62,334.328,471.078,334.709,470.463z"/>
			<path style="fill:#1D262D;" d="M342.413,472.499v-4.629c0-1.245-0.629-1.641-1.582-1.641c-0.865,0-1.685,0.527-2.095,1.099v5.171
				h-1.099v-7.075h1.099v1.025c0.498-0.586,1.464-1.201,2.519-1.201c1.479,0,2.256,0.747,2.256,2.285v4.966H342.413z"/>
			<path style="fill:#1D262D;" d="M344.933,468.954c0-2.051,1.465-3.706,3.486-3.706c2.138,0,3.398,1.67,3.398,3.794v0.278h-5.728
				c0.088,1.333,1.025,2.446,2.549,2.446c0.806,0,1.626-0.322,2.183-0.893l0.527,0.718c-0.703,0.703-1.655,1.084-2.813,1.084
				C346.442,472.674,344.933,471.166,344.933,468.954z M348.404,466.156c-1.509,0-2.256,1.274-2.314,2.358h4.643
				C350.719,467.46,350.015,466.156,348.404,466.156z"/>
			<path style="fill:#1D262D;" d="M358.35,472.499v-1.055c-0.527,0.718-1.392,1.23-2.388,1.23c-1.845,0-3.149-1.406-3.149-3.706
				c0-2.256,1.289-3.721,3.149-3.721c0.952,0,1.817,0.469,2.388,1.245v-3.765h1.098v9.771H358.35z M358.35,470.58v-3.208
				c-0.396-0.615-1.245-1.143-2.124-1.143c-1.421,0-2.271,1.172-2.271,2.739c0,1.567,0.85,2.725,2.271,2.725
				C357.105,471.693,357.954,471.195,358.35,470.58z"/>
			<path style="fill:#1D262D;" d="M364.692,472.499v-9.771h1.099v3.765c0.572-0.776,1.421-1.245,2.388-1.245
				c1.846,0,3.149,1.465,3.149,3.721c0,2.3-1.304,3.706-3.149,3.706c-0.996,0-1.86-0.513-2.388-1.23v1.055H364.692z M367.9,471.693
				c1.436,0,2.286-1.157,2.286-2.725c0-1.567-0.85-2.739-2.286-2.739c-0.864,0-1.728,0.527-2.109,1.143v3.208
				C366.172,471.195,367.036,471.693,367.9,471.693z"/>
			<path style="fill:#1D262D;" d="M372.529,474.271c0.161,0.073,0.425,0.117,0.601,0.117c0.483,0,0.805-0.161,1.055-0.747
				l0.468-1.069l-2.959-7.148h1.187l2.358,5.801l2.344-5.801h1.201l-3.545,8.511c-0.425,1.025-1.143,1.421-2.08,1.436
				c-0.234,0-0.601-0.044-0.806-0.103L372.529,474.271z"/>
		</g>
	</g>
</g>
</svg>
